<svg width="38" height="38" viewBox="0 0 38 38" fill="none" xmlns="http://www.w3.org/2000/svg">
<path d="M6.3335 9.49984C6.3335 9.07991 6.50031 8.67718 6.79724 8.38025C7.09418 8.08332 7.4969 7.9165 7.91683 7.9165H30.0835C30.5034 7.9165 30.9061 8.08332 31.2031 8.38025C31.5 8.67718 31.6668 9.07991 31.6668 9.49984C31.6668 9.91976 31.5 10.3225 31.2031 10.6194C30.9061 10.9164 30.5034 11.0832 30.0835 11.0832H7.91683C7.4969 11.0832 7.09418 10.9164 6.79724 10.6194C6.50031 10.3225 6.3335 9.91976 6.3335 9.49984ZM6.3335 18.9998C6.3335 18.5799 6.50031 18.1772 6.79724 17.8803C7.09418 17.5833 7.4969 17.4165 7.91683 17.4165H30.0835C30.5034 17.4165 30.9061 17.5833 31.2031 17.8803C31.5 18.1772 31.6668 18.5799 31.6668 18.9998C31.6668 19.4198 31.5 19.8225 31.2031 20.1194C30.9061 20.4164 30.5034 20.5832 30.0835 20.5832H7.91683C7.4969 20.5832 7.09418 20.4164 6.79724 20.1194C6.50031 19.8225 6.3335 19.4198 6.3335 18.9998ZM7.91683 26.9165C7.4969 26.9165 7.09418 27.0833 6.79724 27.3803C6.50031 27.6772 6.3335 28.0799 6.3335 28.4998C6.3335 28.9198 6.50031 29.3225 6.79724 29.6194C7.09418 29.9164 7.4969 30.0832 7.91683 30.0832H30.0835C30.5034 30.0832 30.9061 29.9164 31.2031 29.6194C31.5 29.3225 31.6668 28.9198 31.6668 28.4998C31.6668 28.0799 31.5 27.6772 31.2031 27.3803C30.9061 27.0833 30.5034 26.9165 30.0835 26.9165H7.91683Z" fill="black"/>
</svg>
