<svg width="24" height="24" viewBox="0 0 24 24" fill="none" xmlns="http://www.w3.org/2000/svg">
<path d="M14.83 18C14.9894 18.4524 15.038 18.9364 14.9717 19.4115C14.9054 19.8866 14.7262 20.3388 14.449 20.7303C14.1719 21.1218 13.8049 21.4412 13.3789 21.6616C12.9528 21.8819 12.4802 21.997 12.0005 21.997C11.5208 21.997 11.0481 21.8819 10.6221 21.6616C10.1961 21.4412 9.82908 21.1218 9.55193 20.7303C9.27478 20.3388 9.09555 19.8866 9.02927 19.4115C8.96299 18.9364 9.01159 18.4524 9.17099 18" stroke="black" stroke-width="1.5" stroke-linecap="round" stroke-linejoin="round"/>
<path d="M11.236 13C11.6221 13.4316 11.875 13.9658 11.9642 14.5381C12.0534 15.1103 11.9751 15.6961 11.7386 16.2248C11.5022 16.7535 11.1178 17.2024 10.6319 17.5174C10.1459 17.8324 9.57914 18.0001 9 18.0001C8.42087 18.0001 7.85411 17.8324 7.36815 17.5174C6.88218 17.2024 6.49779 16.7535 6.26137 16.2248C6.02495 15.6961 5.9466 15.1103 6.03579 14.5381C6.12498 13.9658 6.3779 13.4316 6.764 13" stroke="black" stroke-width="1.5" stroke-linecap="round" stroke-linejoin="round"/>
<path d="M17.236 13C17.6221 13.4316 17.875 13.9658 17.9642 14.5381C18.0534 15.1103 17.9751 15.6961 17.7386 16.2248C17.5022 16.7535 17.1178 17.2024 16.6319 17.5174C16.1459 17.8324 15.5791 18.0001 15 18.0001C14.4209 18.0001 13.8541 17.8324 13.3681 17.5174C12.8822 17.2024 12.4978 16.7535 12.2614 16.2248C12.0249 15.6961 11.9466 15.1103 12.0358 14.5381C12.125 13.9658 12.3779 13.4316 12.764 13" stroke="black" stroke-width="1.5" stroke-linecap="round" stroke-linejoin="round"/>
<path d="M15 10C15 10.7956 15.3161 11.5587 15.8787 12.1213C16.4413 12.6839 17.2044 13 18 13C18.7956 13 19.5587 12.6839 20.1213 12.1213C20.6839 11.5587 21 10.7956 21 10C21 9.20435 20.6839 8.44129 20.1213 7.87868C19.5587 7.31607 18.7956 7 18 7C17.2044 7 16.4413 7.31607 15.8787 7.87868C15.3161 8.44129 15 9.20435 15 10ZM15 10C15 10.7956 14.6839 11.5587 14.1213 12.1213C13.5587 12.6839 12.7956 13 12 13C11.2044 13 10.4413 12.6839 9.87868 12.1213C9.31607 11.5587 9 10.7956 9 10M15 10C15 9.20435 14.6839 8.44129 14.1213 7.87868C13.5587 7.31607 12.7956 7 12 7C11.2044 7 10.4413 7.31607 9.87868 7.87868C9.31607 8.44129 9 9.20435 9 10M9 10C9 10.7956 8.68393 11.5587 8.12132 12.1213C7.55871 12.6839 6.79565 13 6 13C5.20435 13 4.44129 12.6839 3.87868 12.1213C3.31607 11.5587 3 10.7956 3 10C3 9.20435 3.31607 8.44129 3.87868 7.87868C4.44129 7.31607 5.20435 7 6 7C6.79565 7 7.55871 7.31607 8.12132 7.87868C8.68393 8.44129 9 9.20435 9 10Z" stroke="black" stroke-width="1.5" stroke-linecap="round" stroke-linejoin="round"/>
<path d="M12 7C12 5.333 12.8 2 16 2" stroke="black" stroke-width="1.5" stroke-linecap="round" stroke-linejoin="round"/>
</svg>
