<svg width="24" height="24" viewBox="0 0 24 24" fill="none" xmlns="http://www.w3.org/2000/svg">
<path d="M9.0002 21.9998V20.9998C9.0002 20.4665 9.2002 20.0205 9.6002 19.6618C10.0002 19.3032 10.4669 19.0825 11.0002 18.9998V11.8498C10.6335 11.7165 10.3129 11.5248 10.0382 11.2748C9.76353 11.0248 9.5342 10.7332 9.3502 10.3998L7.4502 10.8998C6.8502 11.0332 6.2792 10.9832 5.7372 10.7498C5.1952 10.5165 4.84953 10.1165 4.7002 9.54984L9.0502 8.44984C9.18353 7.7665 9.5002 7.19984 10.0002 6.74984C10.5002 6.29984 11.1002 6.04984 11.8002 5.99984L12.4002 3.74984C12.5669 3.1665 12.8879 2.70417 13.3632 2.36284C13.8385 2.0215 14.3675 1.91717 14.9502 2.04984L13.7002 6.54984C14.1169 6.81651 14.4379 7.1665 14.6632 7.59984C14.8885 8.03317 15.0009 8.49984 15.0002 8.99984C15.0002 9.21651 14.9752 9.42917 14.9252 9.63784C14.8752 9.8465 14.8169 10.0505 14.7502 10.2498L16.1002 11.6498C16.5169 12.0832 16.7629 12.5915 16.8382 13.1748C16.9135 13.7582 16.7509 14.2498 16.3502 14.6498L13.3502 11.6498C13.3002 11.6998 13.2462 11.7375 13.1882 11.7628C13.1302 11.7882 13.0675 11.8172 13.0002 11.8498V18.9998C13.5335 19.0832 14.0002 19.3042 14.4002 19.6628C14.8002 20.0215 15.0002 20.4672 15.0002 20.9998V21.9998H9.0002ZM12.0002 10.4998C12.4169 10.4998 12.7712 10.3542 13.0632 10.0628C13.3552 9.7715 13.5009 9.41717 13.5002 8.99984C13.4995 8.58251 13.3539 8.22851 13.0632 7.93784C12.7725 7.64717 12.4182 7.50117 12.0002 7.49984C11.5822 7.49851 11.2282 7.64451 10.9382 7.93784C10.6482 8.23117 10.5022 8.58517 10.5002 8.99984C10.4982 9.41451 10.6442 9.76884 10.9382 10.0628C11.2322 10.3568 11.5862 10.5025 12.0002 10.4998Z" fill="black"/>
</svg>
