<svg width="24" height="24" viewBox="0 0 24 24" fill="none" xmlns="http://www.w3.org/2000/svg">
<path d="M21.75 12C21.75 6.61547 17.3845 2.25 12 2.25C6.61547 2.25 2.25 6.61547 2.25 12C2.25 17.3845 6.61547 21.75 12 21.75C17.3845 21.75 21.75 17.3845 21.75 12Z" stroke="black" stroke-width="1.5" stroke-miterlimit="10"/>
<path d="M20.8861 8.06925C20.1333 8.07394 20.2073 9.46285 19.2694 8.80754C18.9211 8.56472 18.7069 8.21175 18.2695 8.10441C17.8875 8.01066 17.4961 8.10816 17.1187 8.17332C16.6898 8.24738 16.1812 8.28066 15.8559 8.6055C15.5414 8.91816 15.375 9.33769 15.0403 9.65222C14.3929 10.2616 14.1197 10.9268 14.5387 11.7883C14.9419 12.6166 15.7851 13.0661 16.695 13.0071C17.5889 12.9475 18.5175 12.4291 18.4917 13.728C18.4823 14.1874 18.5784 14.5061 18.7195 14.9332C18.8503 15.3269 18.8414 15.7085 18.8714 16.1149C18.9267 16.8743 19.0664 17.7255 19.4433 18.3963L20.1464 17.4044C20.2331 17.2816 20.4145 17.1096 20.4576 16.9647C20.534 16.7083 20.3836 16.2677 20.3662 15.9803C20.3489 15.693 20.3573 15.4019 20.3133 15.1146C20.2514 14.7119 20.0133 14.3346 19.9804 13.9366C19.92 13.1955 20.0554 12.6039 19.4845 11.9843C18.9333 11.3866 18.1251 11.2432 17.3531 11.3646C16.964 11.4255 15.3979 11.6758 16.0265 10.7866C16.1508 10.6118 16.3678 10.4683 16.5075 10.3019C16.6289 10.1571 16.7344 9.89082 16.8769 9.77785C17.0194 9.66488 17.6737 9.53504 17.8612 9.59269C18.0487 9.65035 18.2442 9.92082 18.4069 10.0408C18.7074 10.2672 19.0581 10.4177 19.4292 10.4796C20.0695 10.5733 21.4083 10.2011 21.3979 9.37988C21.3961 8.98613 21.0304 8.43769 20.8861 8.06925ZM13.4742 14.8268C13.2244 13.7749 11.7951 13.4233 11.0245 12.8528C10.5815 12.5247 10.1873 12.018 9.6056 11.9768C9.33748 11.9575 9.11294 12.0157 8.84716 11.9468C8.60341 11.8839 8.41216 11.7527 8.15248 11.7869C7.66732 11.8507 7.36123 12.3691 6.83998 12.2988C6.34544 12.2322 5.83591 11.6538 5.72341 11.1827C5.57904 10.5771 6.0581 10.3807 6.57138 10.3268C6.7856 10.3043 7.02607 10.2799 7.23185 10.3582C7.50279 10.4589 7.63076 10.7243 7.87404 10.8583C8.33013 11.1082 8.42248 10.7088 8.35263 10.3038C8.2481 9.69722 8.12623 9.44972 8.66716 9.03254C9.04216 8.74472 9.36279 8.5366 9.30279 8.01957C9.26716 7.71582 9.10076 7.57847 9.25591 7.27613C9.37357 7.04597 9.69654 6.83832 9.90701 6.70097C10.4503 6.3466 12.2344 6.37285 11.5054 5.38097C11.2912 5.08988 10.8961 4.56957 10.5211 4.49832C10.0523 4.40972 9.84419 4.93285 9.51748 5.16347C9.17998 5.40207 8.52279 5.673 8.18482 5.3041C7.73013 4.80769 8.48623 4.64457 8.65357 4.29816C8.82091 3.95175 8.26591 3.29691 7.96873 3.13097L6.57138 4.698C6.53124 4.96044 6.54521 5.22831 6.61245 5.48514C6.67968 5.74197 6.79874 5.98234 6.96232 6.19144C7.24029 6.5491 7.68279 6.66394 7.70294 7.15238C7.72263 7.62113 7.64951 7.86113 7.34294 8.19066C7.21029 8.33129 7.11654 8.53097 6.98154 8.66269C6.81607 8.82347 6.87748 8.77425 6.61919 8.81832C6.13357 8.90035 5.72013 9.02691 5.25091 9.15629C4.46904 9.37238 4.39685 8.09504 4.0406 7.59394L2.86873 8.54035C2.85607 8.6955 3.06091 8.98097 3.11669 9.14972C3.43685 10.1139 4.08279 10.8597 4.49998 11.7822C4.93919 12.7591 6.11857 12.4882 6.63935 13.3441C7.10154 14.1035 6.60794 15.0649 6.95388 15.8599C7.20513 16.4369 7.79763 16.563 8.20638 16.9849C8.62404 17.411 8.61513 17.9941 8.67888 18.5486C8.75074 19.2009 8.86743 19.8474 9.0281 20.4836C9.08482 20.7035 9.13685 20.9941 9.28732 21.1755C9.39044 21.3002 9.74435 21.4075 9.60138 21.4488C9.80107 21.4816 10.1569 21.6682 10.3233 21.5313C10.5426 21.3513 10.484 20.7972 10.522 20.5469C10.6359 19.8016 11.009 19.0727 11.5125 18.5149C12.0098 17.9646 12.6914 17.5919 13.1114 16.968C13.5206 16.3596 13.6439 15.5388 13.4742 14.8268ZM11.909 16.0605C11.6278 16.5625 11.0015 16.8986 10.5989 17.2975C10.4897 17.4058 10.2572 17.7808 10.1203 17.6997C10.0223 17.6416 9.98904 17.155 9.95294 17.0435C9.76674 16.4817 9.41126 15.9913 8.93529 15.6396C8.78857 15.5285 8.42482 15.3841 8.34091 15.2318C8.24716 15.0663 8.33154 14.6758 8.33482 14.4958C8.33998 14.2333 8.22044 13.7969 8.28513 13.5583C8.36013 13.2832 8.21576 13.4491 8.46185 13.3947C8.59169 13.3657 9.12794 13.4599 9.28966 13.4936C9.54654 13.5471 9.6881 13.7069 9.8906 13.8686C10.4231 14.2957 11.0095 14.6261 11.6062 14.9533C12.0684 15.2093 12.2044 15.5332 11.909 16.0605ZM8.64654 3.14504C8.86873 3.36207 9.07779 3.61894 9.40919 3.6405C9.72279 3.6616 10.0186 3.49191 10.2923 3.70519C10.5961 3.93957 10.815 4.23629 11.2181 4.30941C11.6081 4.38019 12.0211 4.15238 12.1176 3.75347C12.2114 3.37332 12.0094 2.95988 11.9972 2.57832C11.9972 2.52535 12.0258 2.29004 11.9892 2.25019C11.962 2.22019 11.7351 2.25394 11.7004 2.25488C11.4464 2.26238 11.1929 2.27988 10.9401 2.30738C10.0185 2.40714 9.11589 2.63839 8.25982 2.9941C8.37373 3.07285 8.51669 3.10425 8.64654 3.14504ZM16.7062 5.77847C17.1042 5.77847 17.5083 5.60035 17.3798 5.14004C17.272 4.75425 17.0883 4.33566 16.6411 4.54379C16.3565 4.67597 15.9534 5.01254 15.9201 5.34629C15.8822 5.72504 16.4409 5.77847 16.7062 5.77847ZM16.3884 7.79269C16.7948 8.03597 17.3976 7.9216 17.7042 7.57425C17.9437 7.30238 18.0848 6.83035 18.5156 6.83082C18.7053 6.83042 18.8874 6.90468 19.0228 7.03754C19.2009 7.22175 19.1658 7.39472 19.2037 7.62535C19.2886 8.14332 19.844 7.65488 19.9889 7.45425C20.0826 7.32347 20.2097 7.12941 20.167 6.95925C20.1276 6.80035 19.942 6.63113 19.8595 6.48535C19.6186 6.06347 19.4203 5.57269 19.0594 5.23191C18.712 4.90379 18.285 4.94175 17.9554 5.28254C17.6854 5.56379 17.3719 5.78644 17.1872 6.12863C17.0569 6.3691 16.9101 6.48394 16.6462 6.54629C16.5009 6.5805 16.335 6.59316 16.2131 6.69066C15.8737 6.95785 16.0669 7.59957 16.3884 7.79269Z" fill="black"/>
</svg>
