<svg width="202" height="34" viewBox="0 0 202 34" fill="none" xmlns="http://www.w3.org/2000/svg">
<path d="M24.0332 0.929081C23.9706 0.929081 23.8766 0.978672 23.7514 1.07524C23.6261 1.16659 23.5008 1.33625 23.3755 1.58681C23.2555 1.83215 23.1563 2.18712 23.0728 2.65171C22.9944 3.1189 22.9579 3.73748 22.9579 4.51006V29.1488C22.9579 29.8953 22.9944 30.5061 23.0728 30.9863C23.1563 31.4665 23.2555 31.832 23.3755 32.0825C23.5008 32.3279 23.6261 32.4975 23.7514 32.5941C23.8766 32.6854 23.9706 32.7298 24.0332 32.7298V33.1474H18.5417V32.7298C18.6044 32.7298 18.6983 32.6854 18.8236 32.5941C18.9489 32.4975 19.0637 32.3279 19.1681 32.0825C19.2778 31.832 19.3795 31.4665 19.4709 30.9863C19.5675 30.5061 19.6171 29.8953 19.6171 29.1488V13.9897H4.36399V29.1488C4.36399 29.8953 4.40053 30.5061 4.47883 30.9863C4.55452 31.4665 4.65631 31.832 4.78159 32.0825C4.90687 32.3279 5.03216 32.4975 5.15744 32.5941C5.28272 32.6854 5.37668 32.7298 5.43932 32.7298V33.1474H0V32.7298C0.0548107 32.7298 0.146162 32.6854 0.271444 32.5941C0.396726 32.4975 0.511568 32.3279 0.615969 32.0825C0.725591 31.832 0.827382 31.4665 0.918734 30.9863C1.01531 30.5061 1.0649 29.8953 1.0649 29.1488V4.51006C1.0649 3.73748 1.01531 3.1189 0.918734 2.65171C0.827382 2.18712 0.725591 1.83215 0.615969 1.58681C0.511568 1.33625 0.396726 1.16659 0.271444 1.07524C0.146162 0.978672 0.0548107 0.929081 0 0.929081V0.511475H5.43932V0.929081C5.37668 0.929081 5.28272 0.978672 5.15744 1.07524C5.03216 1.16659 4.90687 1.33625 4.78159 1.58681C4.65631 1.83215 4.55452 2.18712 4.47883 2.65171C4.40053 3.1189 4.36399 3.73748 4.36399 4.51006V13.5721H19.6171V4.51006C19.6171 3.73748 19.5675 3.1189 19.4709 2.65171C19.3795 2.18712 19.2778 1.83215 19.1681 1.58681C19.0637 1.33625 18.9489 1.16659 18.8236 1.07524C18.6983 0.978672 18.6044 0.929081 18.5417 0.929081V0.511475H24.0332V0.929081Z" fill="#354166"/>
<path d="M46.8077 27.0608C46.4657 26.0377 46.009 25.0406 45.44 24.0645C44.8684 23.0831 44.1924 22.2061 43.4146 21.4336C42.642 20.661 41.7755 20.0215 40.815 19.5126C39.8545 18.9984 38.8001 18.6774 37.6516 18.5521C37.2184 18.5181 36.7694 18.526 36.3049 18.5729C35.8377 18.6225 35.3887 18.7243 34.9581 18.8757C34.5248 19.0297 34.1281 19.2463 33.7679 19.523C33.4129 19.8023 33.1572 20.1755 33.0058 20.6401L30.7298 27.4262C30.1086 29.1958 29.8059 30.5217 29.8215 31.4039C29.8346 32.2887 30.1504 32.7298 30.7716 32.7298V33.1474H26.8252V32.7298C27.0053 32.7298 27.2219 32.6463 27.4725 32.4792C27.723 32.307 27.9945 32.0094 28.2868 31.5918C28.5791 31.1742 28.895 30.6183 29.2369 29.9214C29.5762 29.2193 29.9364 28.3423 30.3122 27.2905L38.5808 3.06931L37.7038 0.511475H41.2326L50.1172 26.4031C50.4226 27.2748 50.7227 28.0996 51.015 28.8774C51.3126 29.65 51.5919 30.3233 51.8503 30.8923C52.1139 31.4639 52.354 31.9129 52.5706 32.2391C52.7925 32.568 52.9935 32.7298 53.1762 32.7298V33.1474H47.7368V32.7298C47.896 32.7298 47.9509 32.2991 47.9039 31.4352C47.8543 30.5661 47.6142 29.4803 47.1835 28.1779L46.8077 27.0608ZM33.5173 19.2516C34.0446 18.7504 34.6971 18.432 35.4696 18.2911C36.2422 18.1527 36.9678 18.1136 37.6516 18.1762C39.4186 18.3302 40.9664 18.9175 42.2975 19.9406C43.6339 20.9637 44.7509 22.1905 45.6488 23.6155L38.8105 3.7166L33.5173 19.2516Z" fill="#354166"/>
<path d="M78.4213 0.511475H82.3781V0.929081C82.1902 0.929081 81.971 1.01782 81.7204 1.19008C81.4751 1.35713 81.1984 1.64945 80.8852 2.06706C80.5772 2.48466 80.2536 3.03538 79.9143 3.7166C79.5723 4.40043 79.2304 5.26958 78.8911 6.32664L70.5703 30.5478L71.4473 33.1474H67.9603L59.0861 7.25582C58.7729 6.38667 58.4702 5.56451 58.1778 4.79194C57.8855 4.01415 57.6063 3.33815 57.3426 2.76655C57.0764 2.19756 56.8258 1.74863 56.5909 1.41977C56.3613 1.09351 56.1551 0.929081 55.975 0.929081V0.511475H61.4561V0.929081C61.2681 0.929081 61.2055 1.35713 61.2681 2.21322C61.3308 3.06409 61.5631 4.13943 61.9676 5.43923L70.3824 29.9423L78.4735 6.23268C79.6846 2.69869 79.6663 0.929081 78.4213 0.929081V0.511475Z" fill="#354166"/>
<path d="M85.1749 33.1475V32.7299C85.2297 32.7299 85.3211 32.6855 85.4464 32.5942C85.5717 32.4976 85.6865 32.328 85.7909 32.0826C85.9005 31.832 86.0023 31.4666 86.0937 30.9864C86.1902 30.5061 86.2398 29.8954 86.2398 29.1489V4.51015C86.2398 3.73758 86.1902 3.119 86.0937 2.6518C86.0023 2.18721 85.9005 1.83225 85.7909 1.5869C85.6865 1.33634 85.5717 1.16669 85.4464 1.07534C85.3211 0.978765 85.2297 0.929174 85.1749 0.929174V0.511568H85.5925C86.9837 0.485468 88.4323 0.394116 89.9356 0.240124C91.439 0.0809114 92.8537 0 94.1848 0C96.5443 0 98.5279 0.195753 100.136 0.584649C101.749 0.968325 103.051 1.50077 104.04 2.18199C105.035 2.86582 105.747 3.68016 106.181 4.62499C106.619 5.57243 106.838 6.6034 106.838 7.71528C106.838 8.67577 106.682 9.56841 106.368 10.388C106.06 11.2101 105.557 11.9488 104.855 12.6013C104.158 13.2486 103.242 13.7993 102.109 14.2508C100.981 14.6971 99.5954 15.0129 97.9537 15.2009C99.5954 15.3888 101.13 15.7098 102.558 16.1614C103.983 16.6077 105.215 17.2028 106.254 17.9466C107.29 18.6931 108.112 19.5753 108.717 20.5984C109.323 21.6216 109.626 22.7987 109.626 24.1272C109.626 25.9595 109.203 27.455 108.363 28.6165C107.527 29.7806 106.402 30.6941 104.99 31.3622C103.584 32.0252 101.952 32.4872 100.094 32.7508C98.2356 33.017 96.265 33.1475 94.1848 33.1475H85.1749ZM106.327 24.1272C106.327 22.7361 106.06 21.5537 105.533 20.5776C105.003 19.5962 104.343 18.7897 103.55 18.1554C102.761 17.5238 101.882 17.0227 100.908 16.6521C99.9321 16.2762 99.0029 15.9943 98.1207 15.8064C97.2359 15.6185 96.4529 15.5036 95.7717 15.4619C95.0879 15.4149 94.6233 15.3888 94.3727 15.3888H89.5389V32.7299H94.1848C96.4529 32.696 98.4679 32.3854 100.23 31.8007C100.973 31.5502 101.712 31.2161 102.443 30.7985C103.174 30.3809 103.824 29.8693 104.395 29.2638C104.964 28.6582 105.429 27.9326 105.784 27.0818C106.144 26.2257 106.327 25.2417 106.327 24.1272ZM94.1848 14.9712V15.0129C95.2079 15.0129 96.2676 14.9059 97.369 14.6893C98.4757 14.4753 99.4832 14.089 100.397 13.5304C101.308 12.9745 102.067 12.2228 102.673 11.2754C103.278 10.3305 103.581 9.14297 103.581 7.71528C103.581 6.2902 103.278 5.10524 102.673 4.16562C102.067 3.22079 101.308 2.4691 100.397 1.91055C99.4832 1.34678 98.4757 0.950054 97.369 0.720371C96.2676 0.490687 95.2079 0.375846 94.1848 0.375846C93.4749 0.375846 92.7232 0.407166 91.9297 0.469807C91.1415 0.527228 90.3454 0.584649 89.5389 0.64729V14.9712H94.1848Z" fill="#D1B539"/>
<path d="M117.9 0.981391C117.837 0.981391 117.743 1.02837 117.618 1.11711C117.498 1.20846 117.378 1.37812 117.252 1.62868C117.127 1.87402 117.025 2.22899 116.95 2.69358C116.871 3.16077 116.835 3.77935 116.835 4.55193V32.7299H122.086C123.235 32.6046 124.279 32.435 125.218 32.2183C126.163 32.0043 127.03 31.7485 127.818 31.4562C128.611 31.1587 129.355 30.8246 130.052 30.454C130.754 30.0781 131.462 29.6762 132.171 29.2429H132.589V33.1893H128.591L127.379 33.1475H112.419V32.7299C112.474 32.7299 112.565 32.6934 112.69 32.6151C112.815 32.5394 112.93 32.3697 113.035 32.1035C113.144 31.8399 113.246 31.4745 113.337 31.0073C113.434 30.5427 113.484 29.9215 113.484 29.1489V4.55193C113.484 3.77935 113.434 3.16077 113.337 2.69358C113.246 2.22899 113.144 1.87402 113.035 1.62868C112.93 1.37812 112.815 1.20846 112.69 1.11711C112.565 1.02837 112.474 0.981391 112.419 0.981391V0.553345H117.9V0.981391Z" fill="#D1B539"/>
<path d="M140.866 0.929081C140.775 0.929081 140.668 0.978672 140.543 1.07524C140.417 1.16659 140.297 1.33625 140.188 1.58681C140.083 1.83215 139.982 2.18712 139.885 2.65171C139.794 3.1189 139.749 3.73748 139.749 4.51006V29.1488C139.749 29.8953 139.794 30.5061 139.885 30.9863C139.982 31.4665 140.083 31.832 140.188 32.0825C140.297 32.3279 140.417 32.4975 140.543 32.5941C140.668 32.6854 140.775 32.7298 140.866 32.7298V33.1474H135.385V32.7298C135.44 32.7298 135.531 32.6854 135.657 32.5941C135.782 32.4975 135.897 32.3279 136.001 32.0825C136.111 31.832 136.213 31.4665 136.304 30.9863C136.401 30.5061 136.45 29.8953 136.45 29.1488V4.51006C136.45 3.73748 136.401 3.1189 136.304 2.65171C136.213 2.18712 136.111 1.83215 136.001 1.58681C135.897 1.33625 135.782 1.16659 135.657 1.07524C135.531 0.978672 135.44 0.929081 135.385 0.929081V0.511475H140.866V0.929081Z" fill="#D1B539"/>
<path d="M169.97 28.5433L173.593 33.1474H169.364L147.148 4.92766V25.5261C147.148 26.6119 147.205 27.5985 147.325 28.4807C147.45 29.3576 147.597 30.1172 147.764 30.7566C147.936 31.3909 148.124 31.8789 148.327 32.2182C148.528 32.5602 148.724 32.7298 148.912 32.7298V33.1474H144.955V32.7298C145.143 32.7298 145.336 32.5602 145.54 32.2182C145.741 31.8789 145.926 31.3909 146.093 30.7566C146.265 30.1172 146.412 29.3576 146.532 28.4807C146.657 27.5985 146.72 26.6119 146.72 25.5261V4.41609L143.661 0.511475H147.889L169.552 28.0317V8.09103C169.552 7.00525 169.49 6.02127 169.364 5.13647C169.239 4.25427 169.088 3.50258 168.915 2.88139C168.748 2.26281 168.563 1.78256 168.362 1.44065C168.158 1.10134 167.968 0.929081 167.788 0.929081V0.511475H171.734V0.929081C171.546 0.929081 171.351 1.10134 171.15 1.44065C170.954 1.78256 170.769 2.26281 170.596 2.88139C170.429 3.50258 170.283 4.25427 170.158 5.13647C170.032 6.02127 169.97 7.00525 169.97 8.09103V28.5433Z" fill="#D1B539"/>
<path d="M197.907 28.0839C198.902 29.7909 199.693 30.9915 200.277 31.6858C200.867 32.3827 201.303 32.7298 201.582 32.7298V33.1474H195.767V32.7298C195.892 32.7298 195.986 32.6854 196.049 32.5941C196.112 32.4975 196.104 32.3096 196.028 32.0303C195.95 31.7536 195.804 31.3674 195.59 30.8715C195.373 30.3782 195.031 29.7283 194.567 28.9191L186.006 13.76L180.754 18.9697V29.1488C180.754 29.8953 180.799 30.5061 180.89 30.9863C180.987 31.4665 181.088 31.832 181.193 32.0825C181.302 32.3279 181.422 32.4975 181.548 32.5941C181.673 32.6854 181.78 32.7298 181.871 32.7298V33.1474H176.39V32.7298C176.445 32.7298 176.536 32.6854 176.662 32.5941C176.787 32.4975 176.902 32.3279 177.006 32.0825C177.116 31.832 177.218 31.4665 177.309 30.9863C177.406 30.5061 177.455 29.8953 177.455 29.1488V4.51006C177.455 3.73748 177.406 3.1189 177.309 2.65171C177.218 2.18712 177.116 1.83215 177.006 1.58681C176.902 1.33625 176.787 1.16659 176.662 1.07524C176.536 0.978672 176.445 0.929081 176.39 0.929081V0.511475H181.871V0.929081C181.78 0.929081 181.673 0.978672 181.548 1.07524C181.422 1.16659 181.302 1.33625 181.193 1.58681C181.088 1.83215 180.987 2.18712 180.89 2.65171C180.799 3.1189 180.754 3.73748 180.754 4.51006V18.4059L193.303 5.90904C194.854 4.32213 195.809 3.09802 196.164 2.2341C196.524 1.36496 195.992 0.929081 194.567 0.929081V0.511475H202V0.929081C201.353 0.929081 200.656 1.10134 199.912 1.44065C199.165 1.78256 198.414 2.21844 197.657 2.74567C196.897 3.26768 196.153 3.84972 195.423 4.48918C194.692 5.12341 194.047 5.7185 193.491 6.27444L188.47 11.2962L197.907 28.0839Z" fill="#D1B539"/>
<path d="M24.0332 0.929081C23.9706 0.929081 23.8766 0.978672 23.7514 1.07524C23.6261 1.16659 23.5008 1.33625 23.3755 1.58681C23.2555 1.83215 23.1563 2.18712 23.0728 2.65171C22.9944 3.1189 22.9579 3.73748 22.9579 4.51006V29.1488C22.9579 29.8953 22.9944 30.5061 23.0728 30.9863C23.1563 31.4665 23.2555 31.832 23.3755 32.0825C23.5008 32.3279 23.6261 32.4975 23.7514 32.5941C23.8766 32.6854 23.9706 32.7298 24.0332 32.7298V33.1474H18.5417V32.7298C18.6044 32.7298 18.6983 32.6854 18.8236 32.5941C18.9489 32.4975 19.0637 32.3279 19.1681 32.0825C19.2778 31.832 19.3795 31.4665 19.4709 30.9863C19.5675 30.5061 19.6171 29.8953 19.6171 29.1488V13.9897H4.36399V29.1488C4.36399 29.8953 4.40053 30.5061 4.47883 30.9863C4.55452 31.4665 4.65631 31.832 4.78159 32.0825C4.90687 32.3279 5.03216 32.4975 5.15744 32.5941C5.28272 32.6854 5.37668 32.7298 5.43932 32.7298V33.1474H0V32.7298C0.0548107 32.7298 0.146162 32.6854 0.271444 32.5941C0.396726 32.4975 0.511568 32.3279 0.615969 32.0825C0.725591 31.832 0.827382 31.4665 0.918734 30.9863C1.01531 30.5061 1.0649 29.8953 1.0649 29.1488V4.51006C1.0649 3.73748 1.01531 3.1189 0.918734 2.65171C0.827382 2.18712 0.725591 1.83215 0.615969 1.58681C0.511568 1.33625 0.396726 1.16659 0.271444 1.07524C0.146162 0.978672 0.0548107 0.929081 0 0.929081V0.511475H5.43932V0.929081C5.37668 0.929081 5.28272 0.978672 5.15744 1.07524C5.03216 1.16659 4.90687 1.33625 4.78159 1.58681C4.65631 1.83215 4.55452 2.18712 4.47883 2.65171C4.40053 3.1189 4.36399 3.73748 4.36399 4.51006V13.5721H19.6171V4.51006C19.6171 3.73748 19.5675 3.1189 19.4709 2.65171C19.3795 2.18712 19.2778 1.83215 19.1681 1.58681C19.0637 1.33625 18.9489 1.16659 18.8236 1.07524C18.6983 0.978672 18.6044 0.929081 18.5417 0.929081V0.511475H24.0332V0.929081Z" fill="#354166"/>
<path d="M46.8077 27.0608C46.4657 26.0377 46.009 25.0406 45.44 24.0645C44.8684 23.0831 44.1924 22.2061 43.4146 21.4336C42.642 20.661 41.7755 20.0215 40.815 19.5126C39.8545 18.9984 38.8001 18.6774 37.6516 18.5521C37.2184 18.5181 36.7694 18.526 36.3049 18.5729C35.8377 18.6225 35.3887 18.7243 34.9581 18.8757C34.5248 19.0297 34.1281 19.2463 33.7679 19.523C33.4129 19.8023 33.1572 20.1755 33.0058 20.6401L30.7298 27.4262C30.1086 29.1958 29.8059 30.5217 29.8215 31.4039C29.8346 32.2887 30.1504 32.7298 30.7716 32.7298V33.1474H26.8252V32.7298C27.0053 32.7298 27.2219 32.6463 27.4725 32.4792C27.723 32.307 27.9945 32.0094 28.2868 31.5918C28.5791 31.1742 28.895 30.6183 29.2369 29.9214C29.5762 29.2193 29.9364 28.3423 30.3122 27.2905L38.5808 3.06931L37.7038 0.511475H41.2326L50.1172 26.4031C50.4226 27.2748 50.7227 28.0996 51.015 28.8774C51.3126 29.65 51.5919 30.3233 51.8503 30.8923C52.1139 31.4639 52.354 31.9129 52.5706 32.2391C52.7925 32.568 52.9935 32.7298 53.1762 32.7298V33.1474H47.7368V32.7298C47.896 32.7298 47.9509 32.2991 47.9039 31.4352C47.8543 30.5661 47.6142 29.4803 47.1835 28.1779L46.8077 27.0608ZM33.5173 19.2516C34.0446 18.7504 34.6971 18.432 35.4696 18.2911C36.2422 18.1527 36.9678 18.1136 37.6516 18.1762C39.4186 18.3302 40.9664 18.9175 42.2975 19.9406C43.6339 20.9637 44.7509 22.1905 45.6488 23.6155L38.8105 3.7166L33.5173 19.2516Z" fill="#354166"/>
<path d="M78.4213 0.511475H82.3781V0.929081C82.1902 0.929081 81.971 1.01782 81.7204 1.19008C81.4751 1.35713 81.1984 1.64945 80.8852 2.06706C80.5772 2.48466 80.2536 3.03538 79.9143 3.7166C79.5723 4.40043 79.2304 5.26958 78.8911 6.32664L70.5703 30.5478L71.4473 33.1474H67.9603L59.0861 7.25582C58.7729 6.38667 58.4702 5.56451 58.1778 4.79194C57.8855 4.01415 57.6063 3.33815 57.3426 2.76655C57.0764 2.19756 56.8258 1.74863 56.5909 1.41977C56.3613 1.09351 56.1551 0.929081 55.975 0.929081V0.511475H61.4561V0.929081C61.2681 0.929081 61.2055 1.35713 61.2681 2.21322C61.3308 3.06409 61.5631 4.13943 61.9676 5.43923L70.3824 29.9423L78.4735 6.23268C79.6846 2.69869 79.6663 0.929081 78.4213 0.929081V0.511475Z" fill="#354166"/>
<path d="M85.1749 33.1475V32.7299C85.2297 32.7299 85.3211 32.6855 85.4464 32.5942C85.5717 32.4976 85.6865 32.328 85.7909 32.0826C85.9005 31.832 86.0023 31.4666 86.0937 30.9864C86.1902 30.5061 86.2398 29.8954 86.2398 29.1489V4.51015C86.2398 3.73758 86.1902 3.119 86.0937 2.6518C86.0023 2.18721 85.9005 1.83225 85.7909 1.5869C85.6865 1.33634 85.5717 1.16669 85.4464 1.07534C85.3211 0.978765 85.2297 0.929174 85.1749 0.929174V0.511568H85.5925C86.9837 0.485468 88.4323 0.394116 89.9356 0.240124C91.439 0.0809114 92.8537 0 94.1848 0C96.5443 0 98.5279 0.195753 100.136 0.584649C101.749 0.968325 103.051 1.50077 104.04 2.18199C105.035 2.86582 105.747 3.68016 106.181 4.62499C106.619 5.57243 106.838 6.6034 106.838 7.71528C106.838 8.67577 106.682 9.56841 106.368 10.388C106.06 11.2101 105.557 11.9488 104.855 12.6013C104.158 13.2486 103.242 13.7993 102.109 14.2508C100.981 14.6971 99.5954 15.0129 97.9537 15.2009C99.5954 15.3888 101.13 15.7098 102.558 16.1614C103.983 16.6077 105.215 17.2028 106.254 17.9466C107.29 18.6931 108.112 19.5753 108.717 20.5984C109.323 21.6216 109.626 22.7987 109.626 24.1272C109.626 25.9595 109.203 27.455 108.363 28.6165C107.527 29.7806 106.402 30.6941 104.99 31.3622C103.584 32.0252 101.952 32.4872 100.094 32.7508C98.2356 33.017 96.265 33.1475 94.1848 33.1475H85.1749ZM106.327 24.1272C106.327 22.7361 106.06 21.5537 105.533 20.5776C105.003 19.5962 104.343 18.7897 103.55 18.1554C102.761 17.5238 101.882 17.0227 100.908 16.6521C99.9321 16.2762 99.0029 15.9943 98.1207 15.8064C97.2359 15.6185 96.4529 15.5036 95.7717 15.4619C95.0879 15.4149 94.6233 15.3888 94.3727 15.3888H89.5389V32.7299H94.1848C96.4529 32.696 98.4679 32.3854 100.23 31.8007C100.973 31.5502 101.712 31.2161 102.443 30.7985C103.174 30.3809 103.824 29.8693 104.395 29.2638C104.964 28.6582 105.429 27.9326 105.784 27.0818C106.144 26.2257 106.327 25.2417 106.327 24.1272ZM94.1848 14.9712V15.0129C95.2079 15.0129 96.2676 14.9059 97.369 14.6893C98.4757 14.4753 99.4832 14.089 100.397 13.5304C101.308 12.9745 102.067 12.2228 102.673 11.2754C103.278 10.3305 103.581 9.14297 103.581 7.71528C103.581 6.2902 103.278 5.10524 102.673 4.16562C102.067 3.22079 101.308 2.4691 100.397 1.91055C99.4832 1.34678 98.4757 0.950054 97.369 0.720371C96.2676 0.490687 95.2079 0.375846 94.1848 0.375846C93.4749 0.375846 92.7232 0.407166 91.9297 0.469807C91.1415 0.527228 90.3454 0.584649 89.5389 0.64729V14.9712H94.1848Z" fill="#D1B539"/>
<path d="M117.9 0.981391C117.837 0.981391 117.743 1.02837 117.618 1.11711C117.498 1.20846 117.378 1.37812 117.252 1.62868C117.127 1.87402 117.025 2.22899 116.95 2.69358C116.871 3.16077 116.835 3.77935 116.835 4.55193V32.7299H122.086C123.235 32.6046 124.279 32.435 125.218 32.2183C126.163 32.0043 127.03 31.7485 127.818 31.4562C128.611 31.1587 129.355 30.8246 130.052 30.454C130.754 30.0781 131.462 29.6762 132.171 29.2429H132.589V33.1893H128.591L127.379 33.1475H112.419V32.7299C112.474 32.7299 112.565 32.6934 112.69 32.6151C112.815 32.5394 112.93 32.3697 113.035 32.1035C113.144 31.8399 113.246 31.4745 113.337 31.0073C113.434 30.5427 113.484 29.9215 113.484 29.1489V4.55193C113.484 3.77935 113.434 3.16077 113.337 2.69358C113.246 2.22899 113.144 1.87402 113.035 1.62868C112.93 1.37812 112.815 1.20846 112.69 1.11711C112.565 1.02837 112.474 0.981391 112.419 0.981391V0.553345H117.9V0.981391Z" fill="#D1B539"/>
<path d="M140.866 0.929081C140.775 0.929081 140.668 0.978672 140.543 1.07524C140.417 1.16659 140.297 1.33625 140.188 1.58681C140.083 1.83215 139.982 2.18712 139.885 2.65171C139.794 3.1189 139.749 3.73748 139.749 4.51006V29.1488C139.749 29.8953 139.794 30.5061 139.885 30.9863C139.982 31.4665 140.083 31.832 140.188 32.0825C140.297 32.3279 140.417 32.4975 140.543 32.5941C140.668 32.6854 140.775 32.7298 140.866 32.7298V33.1474H135.385V32.7298C135.44 32.7298 135.531 32.6854 135.657 32.5941C135.782 32.4975 135.897 32.3279 136.001 32.0825C136.111 31.832 136.213 31.4665 136.304 30.9863C136.401 30.5061 136.45 29.8953 136.45 29.1488V4.51006C136.45 3.73748 136.401 3.1189 136.304 2.65171C136.213 2.18712 136.111 1.83215 136.001 1.58681C135.897 1.33625 135.782 1.16659 135.657 1.07524C135.531 0.978672 135.44 0.929081 135.385 0.929081V0.511475H140.866V0.929081Z" fill="#D1B539"/>
<path d="M169.97 28.5433L173.593 33.1474H169.364L147.148 4.92766V25.5261C147.148 26.6119 147.205 27.5985 147.325 28.4807C147.45 29.3576 147.597 30.1172 147.764 30.7566C147.936 31.3909 148.124 31.8789 148.327 32.2182C148.528 32.5602 148.724 32.7298 148.912 32.7298V33.1474H144.955V32.7298C145.143 32.7298 145.336 32.5602 145.54 32.2182C145.741 31.8789 145.926 31.3909 146.093 30.7566C146.265 30.1172 146.412 29.3576 146.532 28.4807C146.657 27.5985 146.72 26.6119 146.72 25.5261V4.41609L143.661 0.511475H147.889L169.552 28.0317V8.09103C169.552 7.00525 169.49 6.02127 169.364 5.13647C169.239 4.25427 169.088 3.50258 168.915 2.88139C168.748 2.26281 168.563 1.78256 168.362 1.44065C168.158 1.10134 167.968 0.929081 167.788 0.929081V0.511475H171.734V0.929081C171.546 0.929081 171.351 1.10134 171.15 1.44065C170.954 1.78256 170.769 2.26281 170.596 2.88139C170.429 3.50258 170.283 4.25427 170.158 5.13647C170.032 6.02127 169.97 7.00525 169.97 8.09103V28.5433Z" fill="#D1B539"/>
<path d="M197.907 28.0839C198.902 29.7909 199.693 30.9915 200.277 31.6858C200.867 32.3827 201.303 32.7298 201.582 32.7298V33.1474H195.767V32.7298C195.892 32.7298 195.986 32.6854 196.049 32.5941C196.112 32.4975 196.104 32.3096 196.028 32.0303C195.95 31.7536 195.804 31.3674 195.59 30.8715C195.373 30.3782 195.031 29.7283 194.567 28.9191L186.006 13.76L180.754 18.9697V29.1488C180.754 29.8953 180.799 30.5061 180.89 30.9863C180.987 31.4665 181.088 31.832 181.193 32.0825C181.302 32.3279 181.422 32.4975 181.548 32.5941C181.673 32.6854 181.78 32.7298 181.871 32.7298V33.1474H176.39V32.7298C176.445 32.7298 176.536 32.6854 176.662 32.5941C176.787 32.4975 176.902 32.3279 177.006 32.0825C177.116 31.832 177.218 31.4665 177.309 30.9863C177.406 30.5061 177.455 29.8953 177.455 29.1488V4.51006C177.455 3.73748 177.406 3.1189 177.309 2.65171C177.218 2.18712 177.116 1.83215 177.006 1.58681C176.902 1.33625 176.787 1.16659 176.662 1.07524C176.536 0.978672 176.445 0.929081 176.39 0.929081V0.511475H181.871V0.929081C181.78 0.929081 181.673 0.978672 181.548 1.07524C181.422 1.16659 181.302 1.33625 181.193 1.58681C181.088 1.83215 180.987 2.18712 180.89 2.65171C180.799 3.1189 180.754 3.73748 180.754 4.51006V18.4059L193.303 5.90904C194.854 4.32213 195.809 3.09802 196.164 2.2341C196.524 1.36496 195.992 0.929081 194.567 0.929081V0.511475H202V0.929081C201.353 0.929081 200.656 1.10134 199.912 1.44065C199.165 1.78256 198.414 2.21844 197.657 2.74567C196.897 3.26768 196.153 3.84972 195.423 4.48918C194.692 5.12341 194.047 5.7185 193.491 6.27444L188.47 11.2962L197.907 28.0839Z" fill="#D1B539"/>
</svg>
