<svg width="24" height="24" viewBox="0 0 24 24" fill="none" xmlns="http://www.w3.org/2000/svg">
<path d="M12.0001 12.9998V17.9998M6.00012 21.9998H18.0001M13.0371 2.86676L14.0921 4.99576C14.2361 5.29176 14.6201 5.57576 14.9441 5.63076L16.8581 5.95076C18.0821 6.15676 18.3701 7.05176 17.4881 7.93576L16.0001 9.43576C15.7481 9.68976 15.6101 10.1798 15.6881 10.5308L16.1141 12.3868C16.4501 13.8568 15.6761 14.4258 14.3861 13.6568L12.5931 12.5868C12.2691 12.3928 11.7351 12.3928 11.4051 12.5868L9.61112 13.6568C8.32712 14.4258 7.54712 13.8508 7.88312 12.3868L8.30912 10.5298C8.38712 10.1798 8.24912 9.68976 7.99712 9.43576L6.50912 7.93576C5.63312 7.05176 5.91512 6.15676 7.13912 5.95076L9.05312 5.63076C9.37112 5.57576 9.75512 5.29176 9.89912 4.99576L10.9551 2.86576C11.5311 1.71076 12.4671 1.71076 13.0371 2.86576M8.00012 20.9998C8.00012 19.5858 8.00011 18.8788 8.44011 18.4398C8.87811 17.9998 9.58512 17.9998 11.0001 17.9998H13.0001C14.4141 17.9998 15.1211 17.9998 15.5601 18.4398C16.0001 18.8788 16.0001 19.5858 16.0001 20.9998V21.9998H8.00012V20.9998Z" stroke="black" stroke-width="1.5" stroke-linecap="round" stroke-linejoin="round"/>
</svg>
