<svg width="31" height="31" viewBox="0 0 31 31" fill="none" xmlns="http://www.w3.org/2000/svg">
<path d="M27.125 27.125L21.5153 21.5153M21.5153 21.5153C22.4749 20.5558 23.236 19.4166 23.7554 18.1629C24.2747 16.9091 24.542 15.5654 24.542 14.2084C24.542 12.8513 24.2747 11.5076 23.7554 10.2539C23.236 9.00013 22.4749 7.86096 21.5153 6.9014C20.5558 5.94183 19.4166 5.18067 18.1629 4.66135C16.9091 4.14204 15.5654 3.87476 14.2084 3.87476C12.8513 3.87476 11.5076 4.14204 10.2539 4.66135C9.00013 5.18067 7.86096 5.94183 6.9014 6.9014C4.96347 8.83932 3.87476 11.4677 3.87476 14.2084C3.87476 16.949 4.96347 19.5774 6.9014 21.5153C8.83932 23.4532 11.4677 24.542 14.2084 24.542C16.949 24.542 19.5774 23.4532 21.5153 21.5153Z" stroke="black" stroke-linecap="round" stroke-linejoin="round"/>
</svg>
